<?xml version="1.0" encoding="UTF-8" standalone="no"?>
<svg
   xmlns:dc="http://purl.org/dc/elements/1.1/"
   xmlns:cc="http://creativecommons.org/ns#"
   xmlns:rdf="http://www.w3.org/1999/02/22-rdf-syntax-ns#"
   xmlns:svg="http://www.w3.org/2000/svg"
   xmlns="http://www.w3.org/2000/svg"
   xmlns:sodipodi="http://sodipodi.sourceforge.net/DTD/sodipodi-0.dtd"
   xmlns:inkscape="http://www.inkscape.org/namespaces/inkscape"
   width="16"
   height="16"
   version="1.1"
   id="svg4"
   sodipodi:docname="lx-media-eject.svg"
   inkscape:version="0.92.3 (2405546, 2018-03-11)">
  <metadata
     id="metadata10">
    <rdf:RDF>
      <cc:Work
         rdf:about="">
        <dc:format>image/svg+xml</dc:format>
        <dc:type
           rdf:resource="http://purl.org/dc/dcmitype/StillImage" />
      </cc:Work>
    </rdf:RDF>
  </metadata>
  <defs
     id="defs8">
    <filter
       inkscape:collect="always"
       style="color-interpolation-filters:sRGB"
       id="filter1041"
       x="-0.012"
       width="1.024"
       y="-0.012"
       height="1.024">
      <feGaussianBlur
         inkscape:collect="always"
         stdDeviation="0.050000001"
         id="feGaussianBlur1043" />
    </filter>
  </defs>
  <sodipodi:namedview
     pagecolor="#ffffff"
     bordercolor="#666666"
     borderopacity="1"
     objecttolerance="10"
     gridtolerance="10"
     guidetolerance="10"
     inkscape:pageopacity="0"
     inkscape:pageshadow="2"
     inkscape:window-width="1366"
     inkscape:window-height="677"
     id="namedview6"
     showgrid="false"
     inkscape:zoom="29.5"
     inkscape:cx="5.6288926"
     inkscape:cy="6.5623131"
     inkscape:window-x="0"
     inkscape:window-y="0"
     inkscape:window-maximized="1"
     inkscape:current-layer="svg4" />
  <path
     d="m 4.4285719,2.8999995 c 0,0 -1.428572,0 -1.428572,1.4285718 v 7.1428647 c 0,0 0,1.428564 1.428572,1.428564 H 11.571436 C 13,12.9 13,11.471436 13,11.471436 V 4.3285713 C 13,2.8999995 11.571436,2.8999995 11.571436,2.8999995 Z M 5.8571436,8.614284 H 10.142854 V 10.04285 H 5.8571436 Z M 8,5.3999995 10.142854,7.9 H 5.8571436 Z"
     id="path2-6"
     style="opacity:0.15;fill:#333333;fill-opacity:1;stroke-width:0.71428615"
     inkscape:connector-curvature="0" />
  <path
     d="m 4.4285718,3.0999995 c 0,0 -1.4285716,0 -1.4285716,1.4285718 v 7.1428647 c 0,0 0,1.428564 1.4285716,1.428564 H 11.571436 C 13,13.1 13,11.671436 13,11.671436 V 4.5285713 C 13,3.0999995 11.571436,3.0999995 11.571436,3.0999995 Z M 5.8571436,8.814284 H 10.142854 V 10.24285 H 5.8571436 Z M 8,5.6 10.142854,8.1 H 5.8571436 Z"
     id="path2-3"
     style="opacity:0.29080005;fill:#000000;fill-opacity:1;stroke-width:0.71428615;filter:url(#filter1041)"
     inkscape:connector-curvature="0" />
  <path
     d="M 4.4285718,3 C 4.4285718,3 3,3 3,4.4285718 V 11.571436 C 3,11.571436 3,13 4.4285718,13 H 11.571436 C 13,13 13,11.571436 13,11.571436 V 4.4285718 C 13,3 11.571436,3 11.571436,3 Z M 5.7569282,8.714 H 10.243 v 1.42885 H 5.7570718 Z M 8,5.4 10.142854,8 H 5.8571436 Z"
     id="path2"
     style="opacity:1;fill:#dfdfdf;fill-opacity:1;stroke-width:0.71428615"
     inkscape:connector-curvature="0"
     sodipodi:nodetypes="cscsscsccccccccccc" />
</svg>
