<?xml version="1.0" encoding="UTF-8" standalone="no"?>
<svg
   xmlns:dc="http://purl.org/dc/elements/1.1/"
   xmlns:cc="http://creativecommons.org/ns#"
   xmlns:rdf="http://www.w3.org/1999/02/22-rdf-syntax-ns#"
   xmlns:svg="http://www.w3.org/2000/svg"
   xmlns="http://www.w3.org/2000/svg"
   xmlns:sodipodi="http://sodipodi.sourceforge.net/DTD/sodipodi-0.dtd"
   xmlns:inkscape="http://www.inkscape.org/namespaces/inkscape"
   width="24"
   height="24"
   version="1.1"
   id="svg9"
   sodipodi:docname="lx-expose.svg"
   inkscape:version="0.92.3 (2405546, 2018-03-11)">
  <metadata
     id="metadata13">
    <rdf:RDF>
      <cc:Work
         rdf:about="">
        <dc:format>image/svg+xml</dc:format>
        <dc:type
           rdf:resource="http://purl.org/dc/dcmitype/StillImage" />
        <dc:title></dc:title>
      </cc:Work>
    </rdf:RDF>
  </metadata>
  <sodipodi:namedview
     pagecolor="#ffffff"
     bordercolor="#666666"
     borderopacity="1"
     objecttolerance="10"
     gridtolerance="10"
     guidetolerance="10"
     inkscape:pageopacity="0"
     inkscape:pageshadow="2"
     inkscape:window-width="1366"
     inkscape:window-height="688"
     id="namedview11"
     showgrid="false"
     inkscape:zoom="9.8333333"
     inkscape:cx="-8.2372882"
     inkscape:cy="12"
     inkscape:window-x="0"
     inkscape:window-y="0"
     inkscape:window-maximized="1"
     inkscape:current-layer="svg9" />
  <defs
     id="defs3">
    <style
       id="current-color-scheme"
       type="text/css">
   .ColorScheme-Text { color:#dfdfdf; } .ColorScheme-Highlight { color:#4285f4; }
  </style>
    <style
       type="text/css"
       id="current-color-scheme-6">
   .ColorScheme-Text { color:#ffffff; } .ColorScheme-Highlight { color:#5294e2; }
  </style>
  </defs>
  <path
     inkscape:connector-curvature="0"
     style="color:#ffffff;fill:#dfdfdf;fill-opacity:1"
     class="ColorScheme-Text"
     d="m 6.000002,4.9999995 c 0,0 -0.07624,0.00414 -0.18164,0.023437 -0.2042,0.0302 -0.358657,0.103425 -0.472657,0.203125 -0.022,0.0169 -0.04345,0.035087 -0.06445,0.054687 -0.0196,0.021 -0.03779,0.042353 -0.05469,0.064453 -0.0997,0.114 -0.173025,0.2684563 -0.203125,0.4726563 C 5.00404,5.9237589 5,5.9999995 5,5.9999995 V 18 c 0,1 1,1 1,1 h 12 c 0,0 1,0 1,-1 V 5.9999995 c 0,0 -0.0044,-0.076241 -0.02344,-0.1816406 -0.031,-0.2042 -0.103125,-0.3586563 -0.203124,-0.4726563 -0.017,-0.0221 -0.03569,-0.043453 -0.05469,-0.064453 -0.021,-0.0196 -0.04245,-0.037788 -0.06445,-0.054687 -0.114,-0.0997 -0.268656,-0.172925 -0.472656,-0.203125 C 18.075641,5.0041366 18,4.9999996 18,4.9999996 Z m 1,5.0000005 h 10 v 7 h -10 z"
     id="path5" />
</svg>
